HIERARCHY
ROOT Hips
{
	OFFSET -3.958830 18.904000 13.208200
	CHANNELS 6 Xposition Yposition Zposition Zrotation Yrotation Xrotation 
	JOINT LHipJoint
	{
		OFFSET 0.000000 0.000000 0.000000
		CHANNELS 3 Zrotation Yrotation Xrotation
		JOINT LeftUpLeg
		{
			OFFSET 1.800000 -1.400000 0.085000
			CHANNELS 3 Zrotation Yrotation Xrotation
			JOINT LeftLeg
			{
				OFFSET 2.215000 -6.000000 0.000000
				CHANNELS 3 Zrotation Yrotation Xrotation
				JOINT LeftFoot
				{
					OFFSET 2.500000 -6.900000 0.000000
					CHANNELS 3 Zrotation Yrotation Xrotation
					JOINT LeftToeBase
					{
						OFFSET 0.200000 -0.500000 1.950000
						CHANNELS 3 Zrotation Yrotation Xrotation
						End Site
						{
							OFFSET 0.000000 0.000000 0.000000
						}
					}
				}
			}
		}
	}
	JOINT RHipJoint
	{
		OFFSET 0.000000 0.000000 0.000000
		CHANNELS 3 Zrotation Yrotation Xrotation
		JOINT RightUpLeg
		{
			OFFSET -1.800000 -1.400000 0.085000
			CHANNELS 3 Zrotation Yrotation Xrotation
			JOINT RightLeg
			{
				OFFSET -2.215000 -6.000000 0.000000
				CHANNELS 3 Zrotation Yrotation Xrotation
				JOINT RightFoot
				{
					OFFSET -2.500000 -6.900000 0.000000
					CHANNELS 3 Zrotation Yrotation Xrotation
					JOINT RightToeBase
					{
						OFFSET -0.200000 -0.500000 1.950000
						CHANNELS 3 Zrotation Yrotation Xrotation
						End Site
						{
							OFFSET 0.000000 0.000000 0.000000
						}
					}
				}
			}
		}
	}
	JOINT LowerBack
	{
		OFFSET 0.000000 0.000000 0.000000
		CHANNELS 3 Zrotation Yrotation Xrotation
		JOINT Spine
		{
			OFFSET -0.087000 1.940000 -0.288900
			CHANNELS 3 Zrotation Yrotation Xrotation
			JOINT Spine1
			{
				OFFSET 0.000000 1.950000 0.060000
				CHANNELS 3 Zrotation Yrotation Xrotation
				JOINT Neck
				{
					OFFSET 0.000000 0.000000 0.000000
					CHANNELS 3 Zrotation Yrotation Xrotation
					JOINT Neck1
					{
						OFFSET 0.000000 1.600000 0.340000
						CHANNELS 3 Zrotation Yrotation Xrotation
						JOINT Head
						{
							OFFSET 0.000000 1.667000 -0.240000
							CHANNELS 3 Zrotation Yrotation Xrotation
							End Site
							{
								OFFSET 0.000000 0.000000 0.000000
							}
						}
					}
				}
				JOINT LeftShoulder
				{
					OFFSET 0.000000 0.000000 0.000000
					CHANNELS 3 Zrotation Yrotation Xrotation
					JOINT LeftArm
					{
						OFFSET 2.700000 1.550000 -0.730000
						CHANNELS 3 Zrotation Yrotation Xrotation
						JOINT LeftForeArm
						{
							OFFSET 5.450000 0.000000 0.000000
							CHANNELS 3 Zrotation Yrotation Xrotation
							JOINT LeftHand
							{
								OFFSET 3.450000 0.000000 0.000000
								CHANNELS 3 Zrotation Yrotation Xrotation
								JOINT LeftHandIndex1
								{
									OFFSET 0.750000 0.000000 0.000000
									CHANNELS 3 Zrotation Yrotation Xrotation
									End Site
									{
										OFFSET 0.000000 0.000000 0.000000
									}
								}
							}
						}
					}
				}
				JOINT RightShoulder
				{
					OFFSET 0.000000 0.000000 0.000000
					CHANNELS 3 Zrotation Yrotation Xrotation
					JOINT RightArm
					{
						OFFSET -2.700000 1.550000 -0.730000
						CHANNELS 3 Zrotation Yrotation Xrotation
						JOINT RightForeArm
						{
							OFFSET -5.450000 0.000000 0.000000
							CHANNELS 3 Zrotation Yrotation Xrotation
							JOINT RightHand
							{
								OFFSET -3.450000 0.000000 0.000000
								CHANNELS 3 Zrotation Yrotation Xrotation
								JOINT RightHandIndex1
								{
									OFFSET -0.750000 0.000000 0.000000
									CHANNELS 3 Zrotation Yrotation Xrotation
									End Site
									{
										OFFSET 0.000000 0.000000 0.000000
									}
								}
							}
						}
					}
				}
			}
		}
	}
}
MOTION
Frames: 7
Frame Time: 0.016667
-1.465890 16.164100 -2.857140 -21.822798 -31.110328 10.566187 -16.086474 10.138825 5.176505 16.168439 -5.230619 -50.555945 -16.634790 15.778120 38.021953 -0.546394 9.310681 1.259085 0.394690 0.353210 -0.075160 18.124032 -6.489472 4.882150 8.085089 20.461903 -35.631189 24.755725 -39.217614 83.434920 -3.836092 -17.538987 -0.304362 0.491980 0.663800 -0.200220 -2.729225 -3.935921 -9.766236 -12.707738 5.015578 40.024750 -3.550743 4.257805 5.158679 -0.264464 -7.403712 -5.541190 -14.427040 9.235224 25.559505 -0.804820 4.676050 -22.040120 -23.155484 -2.203474 -2.777345 -11.861444 -4.283089 -8.438192 124.058014 -33.251760 -66.711830 -3.913758 2.320066 0.755650 0.279020 -0.294610 0.358820 22.568897 8.947534 5.700397 6.672942 -8.261762 -9.939491 -135.929269 62.134387 -126.185708 1.601698 -1.460419 -0.740350 0.935140 0.179070 -0.234930 
-1.518050 16.094440 -2.867320 -19.974664 -27.466221 8.654187 -16.081854 9.691222 5.486244 16.609675 -7.819498 -52.733982 -17.693362 18.084826 43.429909 -0.238431 10.428260 0.891644 0.397000 0.338420 -0.072180 18.150532 -6.060696 5.114797 -0.423932 20.054331 -46.311830 30.293632 -47.175697 84.717563 -4.225329 -18.886425 -0.583815 0.447890 0.631590 -0.147180 -2.835857 -3.956355 -10.047588 -14.315721 3.932020 45.385991 -3.663264 1.345481 3.391116 -0.184292 -7.393437 -5.796328 -14.195509 10.411509 24.077430 -0.164640 5.103480 -23.874860 -23.235622 -3.983101 -2.502602 -10.671282 -4.714474 -9.590847 112.954355 -36.796569 -58.026952 -3.920680 2.218244 0.785990 0.241850 -0.251670 0.341620 23.128754 9.793370 5.939611 7.421326 -6.909251 -10.439678 -134.072914 58.458807 -118.789159 1.608400 -1.367907 -0.690100 0.891440 0.200420 -0.228840 
-1.561890 15.996530 -2.849980 -20.809810 -24.123779 8.001079 -15.986777 9.256247 5.635404 18.206051 -8.894887 -54.040927 -17.667862 18.810637 45.485545 -0.156827 10.853433 0.751813 0.364160 0.293970 -0.139550 18.268701 -5.832350 5.410046 -5.937631 19.073793 -54.682252 31.673269 -53.364598 88.436796 -4.520657 -20.106311 -0.815872 0.436470 0.653550 -0.165370 -3.163241 -3.582405 -10.268025 -11.701952 0.823211 50.030596 -4.858603 -1.362248 0.853354 -0.278703 -8.806506 -5.971501 -16.700531 12.097425 22.010769 1.906980 4.276110 -22.662730 -23.498077 -4.790261 -2.288424 -10.879024 -5.957922 -9.226963 100.732342 -39.744684 -48.527023 -3.910464 2.125178 0.775600 0.222670 -0.294550 0.331310 24.043532 10.317081 5.831728 5.627250 -6.464495 -10.288627 -135.350200 56.620509 -117.264506 1.616836 -1.408997 -0.700150 0.888850 0.247880 -0.210610 
-1.602430 15.944110 -2.822330 -21.450662 -22.397560 7.819025 -15.945359 8.899229 5.709690 19.737210 -9.339719 -54.805758 -18.058145 19.800775 47.034154 -0.115600 11.289591 0.607615 0.405930 0.312670 -0.081880 18.367173 -5.575215 5.726825 -11.561343 17.640877 -61.250119 32.757308 -56.100358 89.363559 -4.623364 -20.416762 -0.882571 0.463300 0.621860 -0.175550 -3.390250 -3.305253 -10.448882 -9.664003 -1.304710 52.337267 -6.129812 -2.746201 0.066608 -0.217064 -9.325004 -6.089980 -17.721150 12.554498 21.309155 2.025840 3.596740 -23.713570 -24.852196 -6.956020 -2.161218 -9.956179 -7.867168 -8.684252 83.153699 -42.610460 -36.694133 -3.869022 2.032084 0.823990 0.185340 -0.272300 0.323160 25.407947 11.764531 6.162670 4.739568 -6.516738 -10.757011 -135.343771 54.808302 -114.632776 1.602528 -1.393057 -0.717390 0.917570 0.240350 -0.234630 
-1.587830 15.946140 -2.789990 -22.467218 -21.856952 8.244815 -15.855609 8.557794 5.741427 21.360924 -9.011383 -54.770118 -19.628798 20.362352 46.123402 -0.139507 11.404979 0.551967 0.397270 0.301720 -0.092550 18.532127 -5.522216 5.981682 -16.175698 16.301433 -65.257679 35.268840 -52.729809 83.417381 -4.259640 -19.211396 -0.728765 0.477920 0.611210 -0.233020 -3.794838 -2.738024 -10.529703 -5.767775 -3.936178 54.011026 -7.741426 -3.547654 -0.535400 -0.868911 -11.257215 -6.619279 -21.971744 12.113339 19.785722 4.091660 0.319110 -25.486830 -23.897362 -8.065667 -1.885812 -12.827227 -12.771210 -6.496334 60.155527 -36.863311 -20.709656 -3.817473 2.119273 0.841910 0.125060 -0.284610 0.281460 25.722138 12.944791 6.187909 4.363702 -5.479983 -11.244034 -134.213702 52.488455 -109.225756 1.592852 -1.289300 -0.734990 0.996890 0.291010 -0.226470 
-1.548640 15.966040 -2.707130 -23.398351 -21.040086 7.036400 -15.706497 8.574807 5.622070 21.156385 -9.446925 -52.833154 -19.098696 19.952646 46.930344 -0.095166 11.345881 0.562812 0.468340 0.372540 -0.023670 18.686746 -5.860691 5.976208 -18.105109 14.841764 -64.224319 31.731907 -43.608557 77.854395 -3.712618 -17.420251 -0.480560 0.482280 0.522900 -0.197330 -4.176367 -2.073467 -10.432310 -2.148505 -6.801327 56.009672 -10.368506 -4.703847 -0.501822 -0.296185 -11.443783 -7.419811 -22.977463 12.884721 20.753232 2.990520 0.904340 -25.813650 -25.651004 -11.731262 -1.197098 -10.274446 -14.908323 -5.245642 40.497546 -26.225760 -9.651861 -3.812945 2.329612 0.865500 0.074430 -0.204530 0.303470 26.357769 15.186058 7.178492 5.848514 -6.515386 -12.357000 -134.894520 50.952918 -109.443308 1.607553 -1.367605 -0.672110 0.929610 0.217530 -0.222380 
-1.540620 15.992650 -2.647500 -24.159192 -21.575274 5.685856 -15.636390 8.831632 5.612591 21.810524 -9.061433 -50.829834 -19.168732 20.082143 47.357353 -0.010866 11.422248 0.543504 0.446230 0.381330 -0.024840 18.724960 -6.288343 5.699712 -17.258933 14.651967 -61.125713 24.836247 -32.181731 71.947874 -2.900183 -14.875268 -0.002109 0.465430 0.511000 -0.209510 -4.284881 -1.710514 -10.253396 -1.648659 -7.301698 58.605168 -10.369895 -5.250111 -2.698061 -0.031796 -10.931291 -7.682172 -21.514489 13.707727 20.490527 3.115700 2.440420 -25.511100 -28.399210 -13.878828 -0.210946 -7.216751 -13.711578 -3.583967 23.436881 -17.554577 -3.874501 -3.830684 2.369616 0.832220 0.072040 -0.186070 0.295860 28.781506 16.878048 7.588289 3.048563 -6.523066 -12.246668 -133.475005 52.712982 -109.440326 1.697003 -1.313918 -0.649460 0.915640 0.196300 -0.203830 
